PathFileType	4	(X/Y/Z)	Patient4_TMGait_0pt6_02_right_48.trc.trc
DataRate	CameraRate	NumFrames	NumMarkers	Units	OrigDataRate	OrigDataStartFrame	OrigNumFrames
82.352941176470	82.352941176470	4	33	mm	82.352941176470	53	       141
Frame#	Time	Sacral			L.Shoulder			Chest			R.Shoulder			Neck			R.ASIS			L.ASIS			R.Thigh.Superior			R.Thigh.Lateral			R.Thigh.Inferior			R.Patella			L.Thigh.Superior			L.Thigh.Lateral			L.Thigh.Inferior			L.Patella			L.Shank.Superior			L.Shank.Lateral			L.Shank.Inferior			R.Shank.Superior			R.Shank.Lateral			R.Shank.Inferior			R.Heel			R.Midfoot.Superior			R.Midfoot.Lateral			R.Toe			L.Heel			L.Midfoot.Lateral			L.Midfoot.Superior			L.Toe			L.Elbow			L.Wrist			R.Elbow			R.Wrist			
		X1	Y1	Z1	X2	Y2	Z2	X3	Y3	Z3	X4	Y4	Z4	X5	Y5	Z5	X6	Y6	Z6	X7	Y7	Z7	X8	Y8	Z8	X9	Y9	Z9	X10	Y10	Z10	X11	Y11	Z11	X12	Y12	Z12	X13	Y13	Z13	X14	Y14	Z14	X15	Y15	Z15	X16	Y16	Z16	X17	Y17	Z17	X18	Y18	Z18	X19	Y19	Z19	X20	Y20	Z20	X21	Y21	Z21	X22	Y22	Z22	X23	Y23	Z23	X24	Y24	Z24	X25	Y25	Z25	X26	Y26	Z26	X27	Y27	Z27	X28	Y28	Z28	X29	Y29	Z29	X30	Y30	Z30	X31	Y31	Z31	X32	Y32	Z32	X33	Y33	Z33	

53	58.571428571429	861.681419516170	1017.968473707340	541.901216260554	1064.589768588935	1429.635142162796	353.812608299087	1173.803570869505	1346.435031558002	503.419703277777	1119.052207861437	1429.694123346251	683.044274664539	1089.067831152181	1490.078468636614	503.605197121377	1090.499917661852	939.489363917794	646.895022622724	1062.947566340899	964.382413069922	373.556088079621	1120.755878349238	737.994365742167	612.234475961099	1038.395607613252	632.520219335701	671.904859824264	1109.756943315682	579.338326399067	586.889337592030	1106.028038163509	491.660564282397	590.734083752437	1152.914768581971	798.177508423928	403.001909152750	1122.556766097473	670.792704276761	319.492705300240	1229.239340435916	616.966699851424	383.865916474312	1256.152583508924	535.644392399718	374.939188618396	1212.255117950935	460.185775472649	361.942217728385	1098.655616308825	371.880287337470	305.096960477134	1134.386267415784	244.691900792695	355.816997720072	1076.935267655465	403.869467888530	596.470718766520	1004.507798456053	300.550830991072	657.445375659020	1041.941484147688	206.659001389495	590.364198486985	902.092193726368	43.688249836494	562.001433298924	1075.316921439229	97.520507824156	591.488889459581	988.403295384748	37.460094331834	633.010827849824	1196.302053578855	41.937903431469	612.694020790501	984.847693093862	105.219721179822	383.967826718814	1053.561758210237	99.831581202791	300.036560357734	1146.589925582423	145.943862859095	326.223348596944	1262.157860523161	79.861343111664	284.624333634202	1000.218799572814	1077.961315464724	243.279617083977	1063.846905984159	825.716036379096	241.825331856043	1185.120406740236	1094.649202442034	816.828437692360	1410.795163995175	977.843331278465	759.741085226262	
54	58.583571428571	859.861252460766	1018.073974724749	542.288937661183	1062.814860008948	1429.167788486578	353.261865791080	1172.530164328091	1345.915476051631	502.457905186223	1118.772838544849	1429.538920636767	682.214033819440	1088.064918311781	1489.695000851899	502.906757929073	1088.956857161746	939.211348062121	646.528720088994	1060.250208017274	963.939148501752	373.460084003870	1117.590247371958	737.252763834584	611.248731381247	1034.978944359833	632.191514350797	671.654251823566	1105.259949787533	578.533134818465	586.189022222066	1100.862308244510	490.926238873074	590.029353360463	1150.931137140005	799.302097785369	403.189377765304	1121.952408047564	671.735662023144	319.241074597085	1228.616829504692	618.852453789507	384.346113314231	1257.192741780858	539.107750171842	375.446509362994	1216.540637945780	463.143382221726	362.090982946025	1108.370508942205	369.398454524622	303.642257210937	1149.919005348068	243.839580188784	354.752443068959	1071.469213868791	403.274296767344	595.913587084679	998.830560847042	300.239335663047	657.208694623510	1035.321239892148	206.201108749003	589.918804128990	894.735722496783	43.616465470288	561.965419594585	1067.837642253259	97.262014129091	591.039920271936	981.044941320109	37.432813960592	632.992048439781	1188.957316101590	41.811642370305	612.680506401598	1007.142151702982	97.528910541158	380.927183805422	1077.587964373459	94.634250811651	298.300101952314	1167.964647705433	144.958835607382	325.752435752600	1287.044075054542	83.672823477849	286.848482032249	991.320308416766	1078.272808699165	243.823391595873	1037.764826934143	822.391078718691	240.291830981033	1193.985303348108	1097.283647215478	814.661906900724	1427.038776850677	1001.489348939837	750.884622955112	
55	58.595714285714	858.177202560491	1018.205680873261	542.560148346301	1061.209544755743	1428.765001183595	352.578704224202	1171.361472540832	1345.429543251799	501.385280037247	1118.506979980984	1429.395491730411	681.230876313039	1087.124015976223	1489.344809118690	502.094200626353	1087.491985694939	938.954489362079	646.108299675936	1057.887619159453	963.566903833412	373.193857618844	1114.553095512637	736.511249189705	610.373728280716	1031.530957709883	631.892761064510	671.381908216390	1100.776991397770	577.734498609052	585.540842426978	1095.678386165821	490.228963808744	589.359349233874	1148.734306264882	800.035930782377	403.284693074872	1120.927173828666	672.404102890397	318.828864952437	1227.485943477703	620.275665137532	384.646661667255	1257.572201041214	542.175397757259	375.816911754309	1220.122611105011	465.862407155484	362.288194326120	1117.606434781530	366.978686696445	302.306484842075	1164.678442889165	243.389679435037	354.061181353840	1065.984583117226	402.727800885152	595.397992111525	993.115259465582	299.974427888335	656.999560942878	1028.684614557071	205.789800337384	589.525227596960	887.374859516327	43.566547140738	561.957455251756	1060.359674671001	97.004079837043	590.592781226036	973.692191501443	37.403003565603	632.986577835920	1181.615415449156	41.702144686650	612.666767920235	1028.766786624447	90.785844377253	378.385777621092	1100.950948893510	90.211428146899	297.171633425925	1188.498735376291	144.577810024247	325.862404191439	1310.826531748384	88.066075925090	289.961925128628	982.531509404815	1079.005958684749	243.936327082094	1012.710159670966	820.778959489148	239.312773128538	1202.656623902828	1100.118994213533	811.930244017561	1441.062243088163	1025.936958223544	741.744727596736	
56	58.607857142857	856.658090998942	1018.348644016737	542.715112953345	1059.770723999294	1428.432231531244	351.765722643063	1170.294097397316	1344.992749459713	500.211934291617	1118.239803620497	1429.274433922880	680.101090102204	1086.235548811736	1489.036976198994	501.173686718810	1086.124969476664	938.726573361669	645.628159199432	1055.839191537956	963.253048372126	372.764322762756	1111.644656042343	735.770048243665	609.614629072463	1028.040838308584	631.629532577077	671.082438448771	1096.305254754124	576.944808722187	584.950351468619	1090.472197624023	489.572191645786	588.722550471601	1146.383957440446	800.394209147405	403.281549455006	1119.559079856479	672.807061603085	318.251579561836	1225.925960558820	621.236683795692	384.751985143914	1257.343622514472	544.816985484462	376.031489124062	1223.005985264350	468.299044587188	362.493652178411	1126.211946217887	364.637082469504	301.143722937449	1178.472731181813	243.295766565774	353.729639258874	1060.473036578459	402.231995599823	594.920197746556	987.353560013848	299.761425441819	656.812145694895	1022.032478187080	205.430071740489	589.181640611915	880.012943827639	43.539409765910	561.975347920562	1052.893581507107	96.764388100313	590.177299468396	966.346440833844	37.374406187178	632.994160560158	1174.278036489548	41.609248566293	612.654017885722	1049.411551568242	84.992129253231	376.452484991027	1123.263034278228	86.542406038620	296.675775766818	1207.888943775873	144.739209372090	326.485435580749	1333.151170641275	92.908773494684	293.729481117811	973.826947753481	1080.181735755942	243.632724175467	988.937066918347	820.710309915645	238.895764997836	1211.157522843270	1103.169105029763	808.673805897601	1452.830563598305	1050.859300769917	732.447801391771	
